<?xml version="1.0" encoding="UTF-8"?>
<!DOCTYPE svg PUBLIC "-//W3C//DTD SVG 1.1//EN" "http://www.w3.org/Graphics/SVG/1.1/DTD/svg11.dtd">
<svg xmlns="http://www.w3.org/2000/svg" version="1.1" width="639px" height="999px" style="shape-rendering:geometricPrecision; text-rendering:geometricPrecision; image-rendering:optimizeQuality; fill-rule:evenodd; clip-rule:evenodd" xmlns:xlink="http://www.w3.org/1999/xlink">
<g><path style="opacity:1" fill="#fefffe" d="M 273.5,-0.5 C 292.167,-0.5 310.833,-0.5 329.5,-0.5C 395.847,6.75214 453.347,33.4188 502,79.5C 521.805,51.6623 548.638,34.4957 582.5,28C 600.137,24.267 617.803,23.9336 635.5,27C 636.636,28.1451 637.636,29.3117 638.5,30.5C 638.5,31.8333 638.5,33.1667 638.5,34.5C 637.636,35.6883 636.636,36.8549 635.5,38C 604.033,34.4271 574.366,40.0937 546.5,55C 532.544,63.9558 520.877,75.2891 511.5,89C 580.354,164.612 598.52,251.112 566,348.5C 548.748,394.193 520.915,432.026 482.5,462C 408.729,519.226 326.062,537.559 234.5,517C 201.297,510.142 170.464,497.642 142,479.5C 99.8009,504.912 83.4675,541.912 93,590.5C 98.9826,611.814 111.149,628.647 129.5,641C 152.736,657.646 178.736,664.979 207.5,663C 251.512,663.66 295.512,663.16 339.5,661.5C 405.63,658.95 467.297,674.116 524.5,707C 557.391,725.887 584.558,751.054 606,782.5C 629.011,823.901 632.678,866.901 617,911.5C 608,932.163 594.833,949.663 577.5,964C 567.876,971.103 557.209,976.103 545.5,979C 502.551,989.609 459.051,995.109 415,995.5C 389.752,996.934 364.585,997.934 339.5,998.5C 328.5,998.5 317.5,998.5 306.5,998.5C 277.085,997.911 247.585,996.911 218,995.5C 176.989,996.315 136.489,991.815 96.5,982C 71.5578,976.028 49.2245,965.028 29.5,949C 18.2278,937.968 10.3945,924.801 6,909.5C 2.65417,896.884 0.4875,884.217 -0.5,871.5C -0.5,864.833 -0.5,858.167 -0.5,851.5C 0.53776,821.166 8.70443,792.832 24,766.5C 51.7756,726.199 90.2756,707.699 139.5,711C 154.267,711.953 168.6,714.953 182.5,720C 185.912,721.455 189.079,723.288 192,725.5C 193.925,731.016 192.091,734.349 186.5,735.5C 153.384,721.329 119.718,719.829 85.5,731C 48.5671,748.607 25.7337,777.44 17,817.5C 11.4856,844.108 11.1523,870.775 16,897.5C 21.2271,922.462 35.0604,940.962 57.5,953C 83.3876,965.962 110.721,974.295 139.5,978C 162.66,981.113 185.827,982.613 209,982.5C 231.079,984.014 253.245,984.847 275.5,985C 306.167,985.667 336.833,985.667 367.5,985C 417.295,984.751 466.962,980.751 516.5,973C 535.507,970.173 553.173,963.84 569.5,954C 611.363,916.398 623.863,870.565 607,816.5C 602.608,801.714 595.608,788.38 586,776.5C 565.266,751.399 540.766,730.899 512.5,715C 457.602,684.735 398.769,671.235 336,674.5C 282.823,675.911 229.656,675.745 176.5,674C 139.702,667.176 110.869,648.342 90,617.5C 73.3337,582.839 73.3337,548.172 90,513.5C 99.7376,496.428 112.904,482.595 129.5,472C 47.0733,407.634 12.24,323.467 25,219.5C 34.8196,164.758 59.653,118.258 99.5,80C 148.708,33.7818 206.708,6.94849 273.5,-0.5 Z M 283.5,11.5 C 378.355,8.19602 456.189,42.5294 517,114.5C 573.908,189.761 584.241,271.094 548,358.5C 528.896,399.932 500.729,433.766 463.5,460C 389.938,511.944 309.604,525.61 222.5,501C 134.93,476.428 76.0962,421.261 46,335.5C 16.3846,222.002 48.5512,130.502 142.5,61C 185.156,32.0595 232.156,15.5595 283.5,11.5 Z"/></g>
<g><path d="M 269.5,713.5 C 301.086,713.209 325.586,726.209 343,752.5C 344.682,755.864 346.349,759.198 348,762.5C 366.558,724.135 397.058,708.301 439.5,715C 472.388,722.554 492.554,742.721 500,775.5C 500.92,786.818 501.587,798.151 502,809.5C 502.667,854.5 502.667,899.5 502,944.5C 497.203,948.802 493.203,948.136 490,942.5C 489.667,903.167 489.333,863.833 489,824.5C 488.92,808.899 488.087,793.399 486.5,778C 486.263,770.298 483.763,763.132 479,756.5C 462.585,734.049 440.418,724.215 412.5,727C 392.192,729.997 376.692,740.164 366,757.5C 361.359,765.759 357.692,774.425 355,783.5C 350.046,787.677 345.38,787.343 341,782.5C 332.046,749.539 310.713,730.872 277,726.5C 255.98,727.39 237.647,734.723 222,748.5C 215.177,756.618 210.843,765.951 209,776.5C 208.667,832.167 208.333,887.833 208,943.5C 203.816,948.738 199.816,948.738 196,943.5C 195.333,886.833 195.333,830.167 196,773.5C 201.488,748.017 216.321,730.517 240.5,721C 250.02,717.371 259.686,714.871 269.5,713.5 Z"/></g>
</svg>
